<?xml version="1.0"?>
<svg xmlns="http://www.w3.org/2000/svg" xmlns:xlink="http://www.w3.org/1999/xlink" xmlns:svgjs="http://svgjs.com/svgjs" version="1.1" width="512" height="512" x="0" y="0" viewBox="0 0 512.098 512.098" style="enable-background:new 0 0 512 512" xml:space="preserve" class=""><g>
<g xmlns="http://www.w3.org/2000/svg">
	<g>
		<path style="" d="M331.186,221.153c-2.185,0-4.369-0.836-6.033-2.5c-3.337-3.337-3.337-8.73,0-12.066L454.578,77.161    c3.337-3.337,8.73-3.337,12.066,0c3.337,3.337,3.337,8.73,0,12.066L337.219,218.653    C335.555,220.317,333.37,221.153,331.186,221.153" fill="#edf5e1" data-original="#ffe100" class=""/>
		<path style="" d="M303.936,193.903c-2.185,0-4.369-0.836-6.033-2.5c-3.337-3.337-3.337-8.73,0-12.066l61.312-61.312    c3.328-3.328,8.73-3.328,12.066,0c3.328,3.337,3.328,8.738,0,12.066l-61.312,61.312    C308.305,193.066,306.12,193.903,303.936,193.903" fill="#edf5e1" data-original="#ffe100" class=""/>
		<path style="" d="M358.427,248.402c-2.185,0-4.369-0.836-6.033-2.5c-3.337-3.337-3.337-8.73,0-12.066l61.312-61.312    c3.328-3.328,8.73-3.328,12.066,0c3.328,3.337,3.328,8.738,0,12.066l-61.312,61.312    C362.796,247.566,360.611,248.402,358.427,248.402" fill="#edf5e1" data-original="#ffe100" class=""/>
		<path style="" d="M114.202,497.378l-79.053-79.061c-8.26-8.26-8.26-21.666,0-29.926l218.197-218.197    c6.665-6.665,17.468-6.665,24.132,0l84.855,84.855c6.665,6.665,6.665,17.468,0,24.141L144.146,497.378    C135.877,505.647,122.471,505.647,114.202,497.378" fill="#edf5e1" data-original="#ffe100" class=""/>
	</g>
	<g>
		<path style="" d="M416.827,91.561l-37.163-37.171c-6.673-6.665-6.673-17.468,0-24.141l16.725-16.734    c6.673-6.665,17.468-6.665,24.141,0l37.171,37.171c6.665,6.665,6.665,17.476,0,24.141l-16.734,16.734    C434.304,98.225,423.492,98.225,416.827,91.561" fill="#8ee4af" data-original="#fdcc00" class=""/>
		<path style="" d="M321.46,132.436l-37.163-37.171c-6.673-6.673-6.673-17.468,0-24.141l16.725-16.734    c6.673-6.665,17.468-6.665,24.141,0l37.171,37.171c6.665,6.665,6.665,17.476,0,24.132l-16.734,16.742    C338.937,139.092,328.125,139.092,321.46,132.436" fill="#8ee4af" data-original="#fdcc00" class=""/>
		<path style="" d="M400.094,211.061l37.171,37.171c6.665,6.673,17.468,6.673,24.141,0l16.734-16.725    c6.665-6.673,6.665-17.476,0-24.149l-37.171-37.163c-6.665-6.665-17.476-6.665-24.141,0l-16.734,16.734    C393.43,193.594,393.43,204.405,400.094,211.061" fill="#8ee4af" data-original="#fdcc00" class=""/>
	</g>
	<g>
		<path style="" d="M278.336,511.986c-0.93,0-1.877-0.154-2.799-0.478c-4.463-1.545-6.81-6.409-5.257-10.854    l68.267-196.267c1.545-4.454,6.434-6.801,10.854-5.257c4.463,1.545,6.81,6.409,5.257,10.854l-68.267,196.267    C285.171,509.776,281.868,511.986,278.336,511.986" fill="#edf5e1" data-original="#ffe100" class=""/>
		<path style="" d="M414.869,511.986c-3.533,0-6.835-2.21-8.055-5.734l-68.267-196.267    c-1.553-4.446,0.794-9.31,5.257-10.854c4.42-1.553,9.31,0.802,10.854,5.257l68.267,196.267c1.553,4.446-0.794,9.31-5.257,10.854    C416.746,511.832,415.799,511.986,414.869,511.986" fill="#edf5e1" data-original="#ffe100" class=""/>
	</g>
	<path style="" d="M137.544,398.094l-56.055-56.047l122.615-122.615l56.047,56.055c6.665,6.656,6.665,17.468,0,24.132   l-98.475,98.475C155.012,404.759,144.2,404.759,137.544,398.094" fill="#379683" data-original="#63d3fd" class=""/>
	<g>
		<path d="M120.236,491.345c4.932,4.924,12.945,4.941,17.877,0l218.189-218.189c3.328-3.337,3.328-8.747,0-12.075l-84.855-84.855    c-3.337-3.311-8.738-3.328-12.066,0L41.183,394.423c-4.924,4.924-4.924,12.937,0,17.86L120.236,491.345z M129.17,512.098    c-7.603,0-15.206-2.893-21.001-8.687l-79.053-79.061c-11.58-11.571-11.58-30.413,0-41.993L247.314,164.16    c9.984-9.984,26.214-9.984,36.198,0l84.855,84.855c9.984,9.975,9.984,26.223,0,36.207L150.179,503.411    C144.385,509.205,136.774,512.098,129.17,512.098L129.17,512.098z" fill="#05386b" data-original="#000000" style="" class=""/>
		<path d="M319.911,221.153c-2.185,0-4.369-0.836-6.033-2.5c-3.337-3.337-3.337-8.73,0-12.066L443.303,77.161    c3.337-3.337,8.73-3.337,12.066,0s3.337,8.73,0,12.066L325.944,218.653C324.28,220.317,322.095,221.153,319.911,221.153" fill="#05386b" data-original="#000000" style="" class=""/>
		<path d="M422.86,85.527c3.328,3.337,8.73,3.345,12.075,0l16.734-16.734c3.328-3.337,3.328-8.738,0-12.075l-37.171-37.163    c-3.337-3.319-8.738-3.337-12.075,0l-16.725,16.725c-1.613,1.621-2.5,3.763-2.5,6.042c0,2.278,0.879,4.412,2.5,6.025    L422.86,85.527z M428.902,105.086c-6.562,0-13.116-2.5-18.108-7.492l-37.171-37.171c-4.83-4.83-7.492-11.264-7.492-18.099    s2.662-13.269,7.492-18.108l16.734-16.734c9.984-9.975,26.223-9.975,36.207,0l37.171,37.171c9.984,9.984,9.984,26.223,0,36.207    l-16.734,16.734C442.009,102.586,435.456,105.086,428.902,105.086L428.902,105.086z" fill="#05386b" data-original="#000000" style="" class=""/>
		<path d="M292.66,193.903c-2.185,0-4.369-0.836-6.033-2.5c-3.337-3.337-3.337-8.73,0-12.066l61.312-61.312    c3.328-3.328,8.73-3.328,12.066,0c3.328,3.337,3.328,8.738,0,12.066l-61.312,61.312    C297.03,193.066,294.845,193.903,292.66,193.903" fill="#05386b" data-original="#000000" style="" class=""/>
		<path d="M327.494,126.394c3.328,3.345,8.764,3.328,12.075,0l16.734-16.734c1.613-1.613,2.5-3.746,2.5-6.033    c0-2.278-0.896-4.42-2.5-6.033l-37.171-37.171c-3.319-3.319-8.755-3.328-12.075,0.009l-16.725,16.725    c-3.328,3.328-3.328,8.747,0,12.075L327.494,126.394z M333.527,145.953c-6.554,0-13.107-2.492-18.099-7.475v-0.009l-37.171-37.171    c-9.975-9.984-9.975-26.223,0-36.207l16.734-16.742c9.984-9.967,26.223-9.95,36.207,0l37.171,37.18    c4.83,4.83,7.501,11.264,7.501,18.099c0,6.844-2.671,13.278-7.501,18.108l-16.734,16.734    C346.642,143.453,340.089,145.953,333.527,145.953L333.527,145.953z" fill="#05386b" data-original="#000000" style="" class=""/>
		<path d="M347.153,248.402c-2.185,0-4.369-0.836-6.033-2.5c-3.337-3.337-3.337-8.73,0-12.066l61.312-61.312    c3.328-3.328,8.73-3.328,12.066,0c3.328,3.337,3.328,8.738,0,12.066l-61.312,61.312    C351.522,247.566,349.337,248.402,347.153,248.402" fill="#05386b" data-original="#000000" style="" class=""/>
		<path d="M428.894,173.728c-2.185,0-4.369,0.836-6.033,2.5l-16.734,16.734c-1.604,1.613-2.5,3.755-2.5,6.033    c0,2.287,0.887,4.42,2.5,6.025v0.009l37.171,37.171c3.234,3.234,8.841,3.226,12.075,0l16.725-16.734    c3.328-3.328,3.328-8.738,0-12.075l-37.163-37.163C433.272,174.564,431.087,173.728,428.894,173.728 M449.34,261.766    c-6.844,0-13.278-2.662-18.116-7.501l-37.163-37.171c-4.83-4.83-7.501-11.255-7.501-18.099c0-6.835,2.671-13.269,7.501-18.099    l16.734-16.734c9.993-9.993,26.231-9.975,36.207,0l37.171,37.163c4.83,4.838,7.492,11.273,7.492,18.108    c0,6.835-2.662,13.269-7.492,18.108l-16.734,16.725C462.601,259.104,456.167,261.766,449.34,261.766" fill="#05386b" data-original="#000000" style="" class=""/>
		<path d="M93.552,342.045l50.022,50.014h0.009c3.217,3.234,8.823,3.226,12.058,0l98.475-98.475c1.613-1.613,2.5-3.755,2.5-6.033    c0-2.278-0.879-4.412-2.5-6.025l-50.014-50.031L93.552,342.045z M149.608,411.625c-6.835,0-13.269-2.662-18.108-7.501    l-56.047-56.047c-1.604-1.596-2.5-3.763-2.5-6.033c0-2.27,0.896-4.437,2.5-6.033l122.615-122.615c1.604-1.604,3.763-2.5,6.033-2.5    c2.27,0,4.437,0.896,6.033,2.5l56.047,56.055c4.838,4.83,7.501,11.264,7.501,18.099c0,6.835-2.662,13.269-7.501,18.099    l-98.475,98.475C162.877,408.963,156.443,411.625,149.608,411.625L149.608,411.625z" fill="#05386b" data-original="#000000" style="" class=""/>
		<path d="M175.302,260.303l56.047,56.047l22.767-22.767c1.613-1.613,2.5-3.755,2.5-6.033c0-2.278-0.879-4.412-2.5-6.025v-0.009    l-50.014-50.022L175.302,260.303z M231.349,336.949c-2.185,0-4.361-0.828-6.033-2.5l-68.113-68.113    c-3.337-3.337-3.337-8.73,0-12.066l40.866-40.875c3.2-3.2,8.866-3.2,12.066,0l56.047,56.055    c4.838,4.838,7.501,11.264,7.501,18.099c0,6.835-2.662,13.269-7.501,18.099l-28.8,28.8    C235.718,336.122,233.534,336.949,231.349,336.949L231.349,336.949z" fill="#05386b" data-original="#000000" style="" class=""/>
		<path d="M269.802,511.986c-0.93,0-1.877-0.154-2.799-0.478c-4.463-1.545-6.81-6.409-5.257-10.854l68.267-196.267    c1.545-4.454,6.434-6.801,10.854-5.257c4.463,1.545,6.81,6.409,5.257,10.854l-68.267,196.267    C276.637,509.776,273.335,511.986,269.802,511.986" fill="#05386b" data-original="#000000" style="" class=""/>
		<path d="M406.336,511.986c-3.533,0-6.835-2.21-8.055-5.734l-68.267-196.267c-1.553-4.446,0.794-9.31,5.257-10.854    c4.412-1.553,9.31,0.802,10.854,5.257l68.267,196.267c1.553,4.446-0.794,9.31-5.257,10.854    C408.213,511.832,407.266,511.986,406.336,511.986" fill="#05386b" data-original="#000000" style="" class=""/>
	</g>
</g>
<g xmlns="http://www.w3.org/2000/svg">
</g>
<g xmlns="http://www.w3.org/2000/svg">
</g>
<g xmlns="http://www.w3.org/2000/svg">
</g>
<g xmlns="http://www.w3.org/2000/svg">
</g>
<g xmlns="http://www.w3.org/2000/svg">
</g>
<g xmlns="http://www.w3.org/2000/svg">
</g>
<g xmlns="http://www.w3.org/2000/svg">
</g>
<g xmlns="http://www.w3.org/2000/svg">
</g>
<g xmlns="http://www.w3.org/2000/svg">
</g>
<g xmlns="http://www.w3.org/2000/svg">
</g>
<g xmlns="http://www.w3.org/2000/svg">
</g>
<g xmlns="http://www.w3.org/2000/svg">
</g>
<g xmlns="http://www.w3.org/2000/svg">
</g>
<g xmlns="http://www.w3.org/2000/svg">
</g>
<g xmlns="http://www.w3.org/2000/svg">
</g>
</g></svg>
